<?xml version="1.0" encoding="UTF-8" standalone="no"?>
<svg
   xmlns:dc="http://purl.org/dc/elements/1.1/"
   xmlns:cc="http://creativecommons.org/ns#"
   xmlns:rdf="http://www.w3.org/1999/02/22-rdf-syntax-ns#"
   xmlns:svg="http://www.w3.org/2000/svg"
   xmlns="http://www.w3.org/2000/svg"
   viewBox="0 0 185.19426 212.31952"
   height="212.31952"
   width="185.19426"
   version="1.1"
   id="svg2">
  <metadata
     id="metadata8">
    <rdf:RDF>
      <cc:Work
         rdf:about="">
        <dc:format>image/svg+xml</dc:format>
        <dc:type
           rdf:resource="http://purl.org/dc/dcmitype/StillImage" />
        <dc:title></dc:title>
      </cc:Work>
    </rdf:RDF>
  </metadata>
  <defs
     id="defs6" />
  <g
     transform="translate(-322.0339,-11.573093)"
     id="g4148">
    <g
       id="g3338"
       transform="translate(295.86864,-1.0063559)">
      <path
         style="fill:#949494"
         d="m 118.75977,12.605577 c 0,0 22.11523,11.718168 46.86523,26.065083 l 45,26.0853 0.36726,8.87202 0.36726,8.87202 -46.30476,0 -46.30476,0 z"
         id="path3344" />
      <path
         style="fill:#b30c12"
         d="M 71.5625,198.51672 26.25,172.2359 l 0,-8.61795 0,-8.61795 92.5,0 92.5,0 0,8.61879 0,8.61878 -45.75101,26.38122 c -25.16305,14.50966 -46.39743,26.33566 -47.1875,26.27998 -0.79007,-0.0557 -21.827115,-11.9276 -46.74899,-26.38205 z"
         id="path3342" />
      <path
         style="fill:#003062"
         d="m 26.25,118.75 0,-36.25 92.5,0 92.5,0 0,36.25 0,36.25 -92.5,0 -92.5,0 0,-36.25 z"
         id="path3340" />
    </g>
    <path
       style="fill:#ffffff;fill-rule:evenodd;stroke:none;stroke-width:1px;stroke-linecap:butt;stroke-linejoin:miter;stroke-opacity:1"
       d="M 414.61864,11.573093 322.0339,81.640625 414.61864,81.51483 Z"
       id="path3346" />
  </g>
</svg>
